Coordinates
version=1
nRows=12
nColumns=24
inDegrees=yes

Units are S.I. units (second, meters, Newtons, ...)
Angles are in degrees.

endheader
time	pelvis_tilt	pelvis_list	pelvis_rotation	pelvis_tx	pelvis_ty	pelvis_tz	hip_flexion_r	hip_adduction_r	hip_rotation_r	knee_angle_r	ankle_angle_r	subtalar_angle_r	mtp_angle_r	hip_flexion_l	hip_adduction_l	hip_rotation_l	knee_angle_l	ankle_angle_l	subtalar_angle_l	mtp_angle_l	lumbar_extension	lumbar_bending	lumbar_rotation
      1.04400000	     -2.43654023	     -0.46049417	     -2.57814653	     -0.14717516	      0.96863874	      0.32415255	    -10.94603226	      3.77536315	     -4.66865943	    -11.58577891	     17.72153579	      3.74552851	      0.65813874	     25.79001374	      1.07960983	     -5.35305852	     -0.18886492	     -1.25185411	     -4.55745198	      1.34193863	      2.03767741	      4.00856738	      7.39621101
      1.04816667	     -2.45788882	     -0.36630679	     -2.62513096	     -0.14132444	      0.96802989	      0.32395577	    -11.03075669	      3.62219374	     -4.63028472	    -12.07378338	     17.64668810	      3.65579306	      0.67905986	     25.79399377	      1.21578350	     -5.45235439	     -0.29445822	     -1.40102658	     -4.68595774	      1.37567711	      2.09580440	      3.88775228	      7.39159623
      1.05233333	     -2.51064528	     -0.24994780	     -2.66515317	     -0.13545879	      0.96742480	      0.32375235	    -11.05649838	      3.44909926	     -4.57468387	    -12.61531484	     17.66149706	      3.56275988	      0.72705278	     25.82410644	      1.37437648	     -5.45954480	     -0.44832743	     -1.66698145	     -4.94060107	      1.44687519	      2.19167512	      3.72915026	      7.42185918
      1.05650000	     -2.56181689	     -0.13940446	     -2.69682588	     -0.12957797	      0.96687049	      0.32353182	    -11.06514004	      3.28162275	     -4.53342227	    -13.19065103	     17.60219706	      3.44487197	      0.78289962	     25.87344803	      1.52735296	     -5.44810029	     -0.70820692	     -1.93796158	     -5.27600285	      1.53304393	      2.29239608	      3.58035230	      7.44499237
      1.06066667	     -2.62874738	     -0.04440736	     -2.70778833	     -0.12370710	      0.96634151	      0.32328228	    -11.04126135	      3.13874264	     -4.48132683	    -13.79267851	     17.54759199	      3.31417851	      0.90979701	     25.95458398	      1.67258048	     -5.34543023	     -1.05011198	     -2.29476913	     -5.81030843	      1.72070664	      2.40254599	      3.47357319	      7.47198916
      1.06483333	     -2.65777444	      0.10908881	     -2.71549818	     -0.11772620	      0.96592517	      0.32304310	    -11.05351165	      2.93112912	     -4.44237280	    -14.40395794	     17.38338388	      3.13501236	      0.96679349	     26.00544837	      1.86821803	     -5.36067316	     -1.47566986	     -2.58505803	     -6.08267226	      1.80454496	      2.48579778	      3.26142568	      7.45788554
      1.06900000	     -2.75577510	      0.21421791	     -2.70312994	     -0.11180521	      0.96545464	      0.32276971	    -10.96242848	      2.78711600	     -4.37367621	    -15.06817748	     17.27306940	      2.92700532	      1.10336624	     26.15285920	      2.02330854	     -5.24027411	     -1.97968356	     -3.00582023	     -6.65413268	      1.98267836	      2.64726887	      3.13146699	      7.44771750
      1.07316667	     -2.81299537	      0.35163138	     -2.67968790	     -0.10581936	      0.96509219	      0.32247595	    -10.90141226	      2.60629729	     -4.32757443	    -15.75479886	     17.07198360	      2.69989443	      1.26801550	     26.25264887	      2.21485940	     -5.13704421	     -2.51867432	     -3.41976453	     -7.16645296	      2.18256774	      2.76410317	      2.94884888	      7.41668601
      1.07733333	     -2.87731374	      0.49106763	     -2.64800181	     -0.09981723	      0.96477050	      0.32217325	    -10.80587334	      2.42411452	     -4.28642144	    -16.48908884	     16.83705461	      2.46310328	      1.45549876	     26.37280120	      2.40758756	     -5.02673495	     -3.11925210	     -3.83483830	     -7.67491556	      2.38470818	      2.89227809	      2.76418718	      7.38072209
      1.08150000	     -2.92699124	      0.63241553	     -2.61547336	     -0.09380123	      0.96451588	      0.32185767	    -10.69431382	      2.23788687	     -4.23971939	    -17.28121321	     16.54510025	      2.18204664	      1.79117502	     26.46590477	      2.60611122	     -4.85618628	     -3.72939031	     -4.22654437	     -8.26220928	      2.70396820	      2.99722832	      2.57756678	      7.33421677
      1.08566667	     -2.97002475	      0.79479044	     -2.54466071	     -0.08771095	      0.96431896	      0.32150218	    -10.58857607	      2.03164727	     -4.25543611	    -18.05936564	     16.10805406	      1.92961482	      5.29456875	     26.57830752	      2.83146138	     -4.77721265	     -4.40707970	     -4.73028738	     -8.73189099	      5.50740718	      3.11049343	      2.35164013	      7.28310442
      1.08983333	     -3.05442856	      0.93822990	     -2.48747077	     -0.08165551	      0.96411960	      0.32115233	    -10.39030642	      1.84929510	     -4.21083274	    -18.93224768	     15.75453166	      1.63575373	      5.33759160	     26.73966405	      3.03092955	     -4.66051012	     -5.12116039	     -5.16826449	     -9.19015929	      5.49447077	      3.27154454	      2.16290962	      7.22687216
